<svg xmlns="http://www.w3.org/2000/svg" width="21" height="24" fill="none" xmlns:v="https://vecta.io/nano"><path fill-rule="evenodd" d="M15.646.897l.001.875c3.214.252 5.337 2.442 5.34 5.8l.013 9.83c.005 3.662-2.296 5.914-5.983 5.92l-9.007.012C2.346 23.338.017 21.032.013 17.36L0 7.645c-.005-3.38 2.043-5.565 5.257-5.86L5.256.911a.87.87 0 0 1 .886-.899.87.87 0 0 1 .888.897l.001.816 6.842-.009-.001-.816A.87.87 0 0 1 14.758 0c.495-.001.887.384.888.897zM1.775 8.005l17.44-.023v-.408c-.05-2.507-1.307-3.822-3.565-4.018l.001.898c0 .501-.391.899-.886.899-.507.001-.888-.395-.888-.897l-.001-.945-6.842.009.001.943c0 .503-.379.899-.886.899s-.888-.394-.888-.897l-.001-.898c-2.246.225-3.489 1.545-3.486 4.074l.001.363zm12.505 5.3v.013a.95.95 0 0 0 .98.932c.518-.013.932-.457.92-.993-.024-.513-.44-.932-.957-.931-.53.012-.945.443-.943.979zm.952 5.236a.99.99 0 0 1-.958-.99c-.011-.536.414-.981.943-.993h.011c.541 0 .98.442.98.99s-.437.992-.977.994zm-5.697-5.217c.023.536.462.955.992.932a.96.96 0 0 0 .909-1.004.95.95 0 0 0-.957-.932c-.53.023-.945.468-.943 1.004zm.996 5.164c-.53.023-.968-.395-.992-.932 0-.536.414-.979.943-1.004a.95.95 0 0 1 .957.931.96.96 0 0 1-.909 1.005zm-5.742-5.124c.023.536.462.956.992.932a.96.96 0 0 0 .908-1.004.95.95 0 0 0-.957-.932c-.53.023-.943.468-.942 1.004zm.996 5.13c-.53.024-.968-.395-.992-.932-.001-.536.414-.981.943-1.004a.95.95 0 0 1 .957.932.96.96 0 0 1-.909 1.004z" fill="#6c5321"/></svg>