<svg xmlns="http://www.w3.org/2000/svg" width="27" height="26" fill="none" xmlns:v="https://vecta.io/nano"><path d="M9.333 0h8L20 2.833h5.333c.736 0 1.333.634 1.333 1.417v19.833c0 .782-.597 1.417-1.333 1.417h-24C.597 25.5 0 24.866 0 24.083V4.25c0-.782.597-1.417 1.333-1.417h5.333L9.333 0zm4 22.667c4.418 0 8-3.806 8-8.5s-3.582-8.5-8-8.5-8 3.806-8 8.5 3.582 8.5 8 8.5zm0-2.833C10.388 19.833 8 17.296 8 14.167S10.388 8.5 13.333 8.5s5.333 2.537 5.333 5.667-2.388 5.667-5.333 5.667z" fill="#6c5321"/></svg>