<svg xmlns="http://www.w3.org/2000/svg" width="109" height="17" fill="none" xmlns:v="https://vecta.io/nano"><path d="M4.513 16.591V4.845H0V.996h13.803v3.849H9.291v11.746H4.513zm10.628 0V5.309h4.601v11.281H15.14zm-.066-12.564V0h4.734v4.026h-4.734zm6.785 12.564V8.517l-.044-1.593-.133-1.615h4.424l.243 1.792h-.243c.339-.619.819-1.113 1.438-1.482.634-.383 1.372-.575 2.212-.575.796 0 1.482.192 2.057.575.59.369 1.025.959 1.305 1.77h-.376a4.24 4.24 0 0 1 1.615-1.725c.708-.413 1.482-.619 2.323-.619 1.313 0 2.286.398 2.92 1.195s.951 2.042.951 3.738v6.614h-4.623V10.11c0-.575-.081-.981-.243-1.217s-.413-.354-.752-.354c-.457 0-.811.17-1.062.509s-.376.818-.376 1.438v6.105h-4.601V10.11c0-.575-.081-.981-.243-1.217s-.413-.354-.752-.354c-.457 0-.811.17-1.062.509s-.376.818-.376 1.438v6.105h-4.601zm26.975.265c-2.123 0-3.768-.531-4.933-1.593s-1.748-2.507-1.748-4.336c0-1.136.236-2.146.708-3.031.487-.885 1.165-1.578 2.035-2.079.885-.516 1.917-.774 3.097-.774s2.16.258 2.942.774 1.364 1.224 1.747 2.124c.383.885.575 1.902.575 3.053v.885h-7.211V9.8h3.783l-.376.31c0-.723-.125-1.246-.376-1.571a1.22 1.22 0 0 0-1.04-.509c-.516 0-.907.206-1.172.619-.251.398-.376 1.047-.376 1.947v.465c0 .855.206 1.475.619 1.858.428.369 1.054.553 1.88.553.56 0 1.091-.052 1.593-.155a5.69 5.69 0 0 0 1.438-.553l1.15 2.986c-.59.354-1.253.627-1.991.819a9.12 9.12 0 0 1-2.345.288zm6.275-.265V.996h4.778v11.658h6.326v3.937H55.109zM74 16.856c-2.124 0-3.768-.531-4.933-1.593s-1.748-2.507-1.748-4.336c0-1.136.236-2.146.708-3.031.487-.885 1.165-1.578 2.035-2.079.885-.516 1.917-.774 3.097-.774s2.16.258 2.942.774 1.364 1.224 1.748 2.124c.383.885.575 1.902.575 3.053v.885h-7.211V9.8h3.783l-.376.31c0-.723-.125-1.246-.376-1.571a1.22 1.22 0 0 0-1.04-.509c-.516 0-.907.206-1.172.619-.251.398-.376 1.047-.376 1.947v.465c0 .855.207 1.475.619 1.858.428.369 1.054.553 1.88.553a7.89 7.89 0 0 0 1.593-.155c.501-.118.981-.302 1.438-.553l1.15 2.986c-.59.354-1.254.627-1.991.819a9.12 9.12 0 0 1-2.345.288zm10.522 0c-.959 0-1.814-.236-2.566-.708-.737-.472-1.32-1.15-1.748-2.035-.413-.885-.619-1.939-.619-3.163s.206-2.278.619-3.163c.428-.885 1.01-1.563 1.748-2.035.752-.472 1.607-.708 2.566-.708.826 0 1.585.192 2.278.575.708.383 1.165.885 1.371 1.504h-.221l.266-1.814h4.424l-.133 1.615-.044 1.593v8.074h-4.557l-.044-1.681h.266c-.221.575-.678 1.047-1.372 1.416-.678.354-1.423.531-2.234.531zm1.549-3.385c.546 0 .988-.192 1.327-.575.354-.383.531-1.032.531-1.947s-.177-1.563-.531-1.947c-.339-.383-.782-.575-1.327-.575s-.995.192-1.349.575c-.339.383-.509 1.032-.509 1.947s.169 1.563.509 1.947.789.575 1.349.575zm8.521 3.119V.31h4.601v9.423h.044l3.318-4.424h5.397l-4.8 6.083V9.91l4.867 6.68h-5.508l-3.274-4.557h-.044v4.557h-4.601z" fill="#eda43f"/></svg>