<svg xmlns="http://www.w3.org/2000/svg" width="27" height="26" fill="none" xmlns:v="https://vecta.io/nano"><path d="M5.333 1.417C5.333.634 5.93 0 6.667 0h18.667c.736 0 1.333.634 1.333 1.417v17c0 .782-.597 1.417-1.333 1.417h-4v4.25c0 .782-.597 1.417-1.333 1.417H1.333C.597 25.5 0 24.866 0 24.083v-17c0-.782.597-1.417 1.333-1.417h4v-4.25zM8 5.667h12c.736 0 1.333.634 1.333 1.417V17H24V2.833H8v2.833zm10.667 12.381V8.5h-16v13.645l9.988-9.905 6.012 5.807zm-12-3.172c1.105 0 2-.951 2-2.125s-.895-2.125-2-2.125-2 .951-2 2.125.895 2.125 2 2.125z" fill="#6c5321"/></svg>