<svg width="21" height="22" viewBox="0 0 21 22" fill="none" xmlns="http://www.w3.org/2000/svg">
<path d="M6.17647 18.9156V20.8987C6.17647 21.1821 5.94603 21.4118 5.66176 21.4118C5.54135 21.4118 5.42476 21.3697 5.33226 21.2928L1.09213 17.7705C0.873754 17.589 0.844252 17.2655 1.02623 17.0478C1.12402 16.9308 1.26889 16.8632 1.42165 16.8632H16.4706C17.6077 16.8632 18.5294 15.9442 18.5294 14.8108V6.60106H20.5882V14.8108C20.5882 17.0778 18.7447 18.9156 16.4706 18.9156H6.17647ZM14.4118 2.49622V0.513105C14.4118 0.229727 14.6422 0 14.9265 0C15.0469 0 15.1634 0.0420849 15.256 0.118927L19.4961 3.64137C19.7145 3.8228 19.744 4.14634 19.562 4.36404C19.4642 4.48102 19.3194 4.54865 19.1666 4.54865L4.11765 4.54864C2.98059 4.54864 2.05882 5.46754 2.05882 6.60106V14.8108H0V6.60106C0 4.33402 1.84353 2.49622 4.11765 2.49622H14.4118Z" fill="#6C5321"/>
</svg>
